<?xml version="1.0" encoding="UTF-8"?><svg id="Layer_2" xmlns="http://www.w3.org/2000/svg" xmlns:xlink="http://www.w3.org/1999/xlink" viewBox="0 0 1199.07 759.95"><defs><style>.cls-1,.cls-2,.cls-3,.cls-4,.cls-5,.cls-6,.cls-7,.cls-8,.cls-9,.cls-10,.cls-11,.cls-12,.cls-13,.cls-14,.cls-15,.cls-16{stroke-miterlimit:10;}.cls-1,.cls-2,.cls-4,.cls-7,.cls-8,.cls-10,.cls-11,.cls-12,.cls-13,.cls-14,.cls-16{stroke:#000;}.cls-1,.cls-12{stroke-width:5px;}.cls-2,.cls-3,.cls-4,.cls-5,.cls-6,.cls-7,.cls-8,.cls-9,.cls-10,.cls-15{stroke-width:8px;}.cls-2,.cls-17,.cls-16{fill:gray;}.cls-18,.cls-11{fill:#fff;}.cls-3{fill:#c5e6ff;}.cls-3,.cls-6,.cls-9,.cls-15{stroke:#c1272d;}.cls-4{fill:#a01c26;}.cls-5{fill:#565455;stroke:gray;}.cls-6{fill:#a61d27;}.cls-19{clip-path:url(#clippath-2);}.cls-20,.cls-7{fill:#c1272d;}.cls-8,.cls-13{fill:none;}.cls-21{clip-path:url(#clippath-1);}.cls-9{fill:#e72534;}.cls-22{clip-path:url(#clippath-4);}.cls-11,.cls-13,.cls-14,.cls-16{stroke-width:7px;}.cls-23{fill:#e5e5e5;}.cls-12{fill:#333;}.cls-24{clip-path:url(#clippath);}.cls-25{clip-path:url(#clippath-3);}.cls-26{fill:#95b1bc;}.cls-15{fill:#b3cfdd;}</style><clipPath id="clippath"><path class="cls-7" d="m1172.98,634.35s0-34.86-3.37-171.2c-3.36-136.3-179.23-140.93-179.23-140.93L844.85,29.62,250.46,60.26,42.12,329.88s10.73,147.06-12.25,217.53c-19.98,61.25-12.26,105.7-12.26,105.7h79.66c0-113.36,107.24-110.3,107.24-110.3,100.34,0,110.3,99.58,110.3,99.58h315.57c2.79-104.17,109.97-99.58,109.97-99.58,127.48,0,116.75,127.15,116.75,127.15l315.88-35.61Zm-632.03-267.71H175.4s-56.52-.48,21.45-102.64l57.02-81.1c7.51-10.68,19.57-17.24,32.6-17.74l230.51-8.97c13.89-.54,25.88,9.63,27.62,23.42l20.16,160.03c1.81,14.33-9.37,27-23.81,27Zm299.38-26.34l-22.91,2.99-151.53,19.73c-15.68,2.04-30.26-8.41-33.35-23.92l-33.4-167.09c-2.45-12.24,6.25-23.9,18.67-25.06l234.35-21.72c13.87-1.28,27.1,6.04,33.39,18.46l74.97,148.23c3.29,6.51,3.36,13.59,1.01,19.69-2.45,6.4-7.55,11.72-14.36,14.19-1.65.6-3.4,1.03-5.24,1.27l-101.6,13.23Z"/></clipPath><clipPath id="clippath-1"><ellipse class="cls-2" cx="198.51" cy="653.11" rx="101.21" ry="84.87" transform="translate(-388.96 305.5) rotate(-42.48)"/></clipPath><clipPath id="clippath-2"><ellipse class="cls-16" cx="735.35" cy="653.11" rx="101.21" ry="84.87" transform="translate(-248.04 668.05) rotate(-42.48)"/></clipPath><clipPath id="clippath-3"><path class="cls-11" d="m954.12,581.11s9.04-167.49-54.64-167.49c-76.6,0-64.1,181.79-64.1,181.79,0,0,73.29-38.81,118.74-14.3Z"/></clipPath><clipPath id="clippath-4"><path class="cls-11" d="m1188.81,540.18s8.19-151.68-49.48-151.68c-69.36,0-58.05,164.63-58.05,164.63,0,0,66.37-35.14,107.53-12.95Z"/></clipPath></defs><path class="cls-4" d="m976.08,313.53c12.93-24.34,36.99-37.47,58.24-33.24,1.34.27,23.73,5.11,32.2,25.43.87,2.08,7.84,19.46-.48,31.07,0,0-3.89,5.43-34.98,14.88h0l-59.58-6.08,4.6-32.08Z"/><polygon class="cls-15" points="291.67 114.53 113.97 350.59 473.46 496.92 606.59 305.73 543.93 114.53 291.67 114.53"/><rect class="cls-23" x="447.65" y="96.7" width="37.31" height="317.52" transform="translate(213.63 -212.36) rotate(32.91)"/><rect class="cls-18" x="525.71" y="92.09" width="10.89" height="317.52" transform="translate(221.54 -248.34) rotate(32.91)"/><polygon class="cls-3" points="571.66 99.91 605.72 380.28 810.79 482.3 1001.61 349.79 858.73 83.38 571.66 99.91"/><polygon class="cls-26" points="390.95 137.87 217.27 398.07 113.97 407.65 128.42 275.74 190.72 169.53 272.42 110.3 390.95 137.87"/><rect class="cls-18" x="701.85" y="85.42" width="10.89" height="317.52" transform="translate(246.18 -345.11) rotate(32.91)"/><rect class="cls-18" x="760.48" y="77.12" width="40.93" height="317.52" transform="translate(253.49 -386.46) rotate(32.91)"/><rect class="cls-18" x="803.29" y="140.34" width="49.64" height="260.25" transform="translate(279.85 -406.53) rotate(32.91)"/><path class="cls-20" d="m1172.98,634.35s0-34.86-3.37-171.2c-3.36-136.3-179.23-140.93-179.23-140.93L844.85,29.62,250.46,60.26,42.12,329.88s10.73,147.06-12.25,217.53c-19.98,61.25-12.26,105.7-12.26,105.7h79.66c0-113.36,107.24-110.3,107.24-110.3,100.34,0,110.3,99.58,110.3,99.58h315.57c2.79-104.17,109.97-99.58,109.97-99.58,127.48,0,116.75,127.15,116.75,127.15l315.88-35.61Zm-632.03-267.71H175.4s-56.52-.48,21.45-102.64l57.02-81.1c7.51-10.68,19.57-17.24,32.6-17.74l230.51-8.97c13.89-.54,25.88,9.63,27.62,23.42l20.16,160.03c1.81,14.33-9.37,27-23.81,27Zm299.38-26.34l-22.91,2.99-151.53,19.73c-15.68,2.04-30.26-8.41-33.35-23.92l-33.4-167.09c-2.45-12.24,6.25-23.9,18.67-25.06l234.35-21.72c13.87-1.28,27.1,6.04,33.39,18.46l74.97,148.23c3.29,6.51,3.36,13.59,1.01,19.69-2.45,6.4-7.55,11.72-14.36,14.19-1.65.6-3.4,1.03-5.24,1.27l-101.6,13.23Z"/><g class="cls-24"><path class="cls-6" d="m571.66,99.91l-32.93-54.51-288.27,14.86-162.43,210.2-56.63,60.94L4.35,660.81l342.62-7.7h240.44s.13-61.17,1.6-99.98c1.47-38.81,53.12-59.85,53.12-59.85-.47-12.94-.51-26.58.02-40.85.23-6.27.57-12.4.99-18.38-28.34,11.65-56,6.81-67.4-9.19-5.1-7.16-8.16-18.25-5.14-28.95,5.25-18.59,25.59-24.37,28.63-25.18,21.47-5.71,47.01-9.08,49.02-7.45l-51.37-180.82-25.23-82.55Z"/><path class="cls-9" d="m817.42,343.29c172.55-15,219.8,43.4,231.09,59.81,21.4,31.1,21.75,54.11,21.58,242.86,0,9.19.02,10.07,0,14.81,45.62-6.81,63.63-8,109.25-14.81,0,0,14.71-198.41,15.73-206.76,1.02-8.35-75.42-89.41-75.42-89.41l-87.91-34.19-60.26,9.03-119.01,15.17"/><polygon class="cls-9" points="735.35 35.26 872.39 333.23 990.38 322.21 971.48 259.68 901.53 125.08 857.1 29.62 735.35 35.26"/></g><path class="cls-8" d="m1172.98,634.35s0-34.86-3.37-171.2c-3.36-136.3-179.23-140.93-179.23-140.93L844.85,29.62,250.46,60.26,42.12,329.88s10.73,147.06-12.25,217.53c-19.98,61.25-12.26,105.7-12.26,105.7h79.66c0-113.36,107.24-110.3,107.24-110.3,100.34,0,110.3,99.58,110.3,99.58h315.57c2.79-104.17,109.97-99.58,109.97-99.58,127.48,0,116.75,127.15,116.75,127.15l315.88-35.61Zm-632.03-267.71H175.4s-56.52-.48,21.45-102.64l57.02-81.1c7.51-10.68,19.57-17.24,32.6-17.74l230.51-8.97c13.89-.54,25.88,9.63,27.62,23.42l20.16,160.03c1.81,14.33-9.37,27-23.81,27Zm299.38-26.34l-22.91,2.99-151.53,19.73c-15.68,2.04-30.26-8.41-33.35-23.92l-33.4-167.09c-2.45-12.24,6.25-23.9,18.67-25.06l234.35-21.72c13.87-1.28,27.1,6.04,33.39,18.46l74.97,148.23c3.29,6.51,3.36,13.59,1.01,19.69-2.45,6.4-7.55,11.72-14.36,14.19-1.65.6-3.4,1.03-5.24,1.27l-101.6,13.23Z"/><ellipse class="cls-17" cx="198.51" cy="653.11" rx="101.21" ry="84.87" transform="translate(-388.96 305.5) rotate(-42.48)"/><g class="cls-21"><path class="cls-5" d="m300,654.64c-7.45.98-8.63-29.36-33.7-51.06-3.15-2.73-26.22-22.08-57.89-19.39-28.79,2.45-62.34,22.93-68.75,57.17-3.95,21.11,3.19,43.33,17.36,58.21,26.19,27.5,67.99,21.18,72.51,20.43,60.67-10.11,118.64-85.28,140.94-141.96,2.39-6.07,23.59-44.1,28.6-44.43,23-1.48-91.91,165.45-91.91,165.45,0,0-45.15,42.38-44.43,44.43.72,2.04-122.55,12.26-122.55,12.26,0,0-66.89-65.36-59.74-85.79,7.15-20.43,96.09-155.78,96.09-155.78l157.49,13.23c-6.45,15.42-14.93,38.68-20.73,67.99-6.58,33.3-6.52,58.35-13.28,59.23Z"/></g><ellipse class="cls-8" cx="198.51" cy="653.11" rx="101.21" ry="84.87" transform="translate(-388.96 305.5) rotate(-42.48)"/><ellipse class="cls-17" cx="735.35" cy="653.11" rx="101.21" ry="84.87" transform="translate(-248.04 668.05) rotate(-42.48)"/><g class="cls-19"><path class="cls-5" d="m837.19,666.89c-15.31-1.26-11.99-59.36-51.2-78.17-22.72-10.9-53.61-5.68-75.44,9.75-20.22,14.29-27.94,34-30.47,41.59-1.13,7.16-4.12,31.85,11.07,53.39,19.94,28.29,58.01,32.39,82.72,26.55,14.05-3.32,5.69-5.57,57.19-38.81,19.48-12.57,41.74-25.84,58.4-53.08,0,0,.01-.02.01-.02l-61.37,84.77-65.94,42.89-98.08-16.85-38.3-53.62-78.64-163.4,142.98-54.21c69.11,9.9,138.21,19.8,207.32,29.7-30.46,139.4-48.82,170.47-60.26,169.53Z"/></g><ellipse class="cls-13" cx="735.35" cy="653.11" rx="101.21" ry="84.87" transform="translate(-248.04 668.05) rotate(-42.48)"/><circle class="cls-12" cx="200.51" cy="645.96" r="24"/><circle class="cls-12" cx="738.16" cy="645.96" r="24"/><path class="cls-18" d="m954.12,581.11s9.04-167.49-54.64-167.49c-76.6,0-64.1,181.79-64.1,181.79,0,0,73.29-38.81,118.74-14.3Z"/><g class="cls-25"><path class="cls-14" d="m888.25,591.87s-17.36-229.79,66.38-200.17c83.74,29.62,55.15,228.26,55.15,228.26l-121.53-28.09Z"/></g><path class="cls-13" d="m954.12,581.11s9.04-167.49-54.64-167.49c-76.6,0-64.1,181.79-64.1,181.79,0,0,73.29-38.81,118.74-14.3Z"/><path class="cls-18" d="m1188.81,540.18s8.19-151.68-49.48-151.68c-69.36,0-58.05,164.63-58.05,164.63,0,0,66.37-35.14,107.53-12.95Z"/><g class="cls-22"><path class="cls-14" d="m1132.85,559.66s-1.56-245.81,38.81-193.02c16.72,21.86,23.41,122.98,23.41,122.98v63.5l-62.22,6.54Z"/></g><path class="cls-13" d="m1188.81,540.18s8.19-151.68-49.48-151.68c-69.36,0-58.05,164.63-58.05,164.63,0,0,66.37-35.14,107.53-12.95Z"/><polygon class="cls-18" points="879.54 467.66 908.62 499.78 878.11 527.41 879.54 467.66"/><polygon class="cls-18" points="1121.07 429.88 1150.16 461.99 1119.65 489.62 1121.07 429.88"/><path d="m818.51,406.78c15.93-26.04,51.75-37.93,80.92-31.86,10.52,2.36,20.91,6.92,28.19,15.2,0,0-.42,1.85-.42,1.85-13.58-2.49-27.47-2.21-41.14-.69-18.29,2.23-36.26,6.74-53.73,12.57-4.39,1.43-8.77,2.95-13.03,4.66l-.78-1.73h0Z"/><path d="m1090.12,375.43c18.42-22.1,53.68-29.05,80.38-20.16,9.56,3.34,18.94,8.71,24.87,17.25,0,0-.61,1.59-.61,1.59-8.32-2.82-16.99-4.4-25.71-5.24-21.94-1.89-44.03.69-65.53,5.17-4.32.88-8.65,1.85-12.87,3.01l-.52-1.62h0Z"/><path class="cls-8" d="m245.87,366.64v160.77s92.94,7.74,91.91,114.97h267.94c-4.74-123.57,36.4-124.6,36.4-124.6l.04-76.38c-7.15,3.56-36.98,17.43-67.44,4.89-7.56-3.11-25.37-10.44-30.64-27.57-6.07-19.73,8.05-40.89,22.47-51.06,18.67-13.18,45.07-13.06,67.4,0,118.81-15.15,237.62-30.3,356.43-45.45"/><path class="cls-10" d="m928.23,272.25c-38.36-25.34-84.51-11.16-103.08,31.66-5.39,12.42-7.87,25.9-7.73,39.38l22.91-2.99c-.09-9.64,1.7-19.25,5.55-28.13,13.35-30.79,46.52-40.97,74.09-22.76,12.85,8.49,22.22,21.64,27.2,36.39,6.81-2.47,11.91-7.79,14.36-14.19-7.46-15.88-18.78-29.76-33.3-39.36Z"/><path class="cls-1" d="m482.8,439.15c-59.36,1.52-52.02-31.5-52.02-31.5h89.81s2.04,30.48-37.79,31.5Z"/><circle class="cls-1" cx="131.8" cy="423.42" r="28.91"/></svg>