<?xml version="1.0" encoding="UTF-8"?><svg id="Layer_1" xmlns="http://www.w3.org/2000/svg" viewBox="0 0 622.36 928.74"><defs><style>.cls-1,.cls-2,.cls-3,.cls-4,.cls-5{stroke:#000;stroke-miterlimit:10;}.cls-1,.cls-2,.cls-5{fill:none;}.cls-1,.cls-4{stroke-width:4px;}.cls-6{fill:#2d2d2c;}.cls-7,.cls-3{fill:#4d4d4d;}.cls-2{stroke-width:6px;}.cls-3,.cls-5{stroke-width:5px;}.cls-4{fill:#ffce00;}</style></defs><rect class="cls-3" x="2.5" y="2.5" width="617.36" height="923.74"/><polyline class="cls-2" points="34.67 45.71 39.01 45.82 583.1 44.88 583.1 918.56 562.67 908.88 562.67 67.86 54.93 67.86 57.99 909.39 34.67 918.59 34.67 45.71 2.5 2.5"/><line class="cls-2" x1="583.1" y1="44.88" x2="619.86" y2="2.5"/><polyline class="cls-5" points="562.67 908.88 549.39 903.27 549.39 80.63 66.07 80.63 54.93 67.86"/><line class="cls-5" x1="562.67" y1="67.86" x2="549.39" y2="80.63"/><polygon class="cls-7" points="66.07 80.63 66.07 908.88 549.39 907.27 549.39 80.63 66.07 80.63"/><polygon class="cls-5" points="66.07 80.63 66.07 908.88 549.39 907.27 549.39 80.63 66.07 80.63"/><circle class="cls-4" cx="533.18" cy="504.59" r="16.21"/><polygon class="cls-6" points="455.31 190.77 455.31 790.73 294.45 790.73 468.1 790.73 468.1 176.69 151.5 176.69 151.5 190.36 455.31 190.77"/><polygon class="cls-1" points="151.5 179.9 151.5 790.73 468.1 790.73 468.1 178.86 151.5 179.9"/></svg>