<?xml version="1.0" encoding="UTF-8"?><svg id="Layer_2" xmlns="http://www.w3.org/2000/svg" xmlns:xlink="http://www.w3.org/1999/xlink" viewBox="0 0 622.36 928.74"><defs><style>.cls-1,.cls-2,.cls-3,.cls-4,.cls-5,.cls-6{stroke-miterlimit:10;}.cls-1,.cls-2,.cls-3,.cls-4,.cls-6{stroke:#000;}.cls-1,.cls-2,.cls-6{fill:none;}.cls-1,.cls-4{stroke-width:4px;}.cls-7{fill:#2d2d2c;}.cls-8,.cls-3{fill:#4d4d4d;}.cls-2{stroke-width:6px;}.cls-3,.cls-5,.cls-6{stroke-width:5px;}.cls-4{fill:#ffce00;}.cls-9{clip-path:url(#clippath);}.cls-5{fill:#383838;stroke:#4d4d4d;}</style><clipPath id="clippath"><polygon class="cls-3" points="66.07 80.63 66.07 908.88 380.88 839.69 380.88 121.99 180.2 80.63 66.07 80.63"/></clipPath></defs><rect class="cls-3" x="2.5" y="2.5" width="617.36" height="923.74"/><polygon points="337.99 828.2 549.39 905.27 549.39 80.63 161.82 80.63 161.82 111.27 351.78 161.05 338.76 330.33 333.39 556.29 360.03 698.76 337.99 828.2"/><polyline class="cls-2" points="34.67 45.71 39.01 45.82 583.1 44.88 583.1 918.56 562.67 908.88 562.67 67.86 54.93 67.86 57.99 909.39 34.67 918.59 34.67 45.71 2.5 2.5"/><line class="cls-2" x1="583.1" y1="44.88" x2="619.86" y2="2.5"/><polyline class="cls-6" points="562.67 908.88 549.39 903.27 549.39 80.63 66.07 80.63 54.93 67.86"/><line class="cls-6" x1="562.67" y1="67.86" x2="549.39" y2="80.63"/><polygon class="cls-8" points="66.07 80.63 66.07 908.88 380.88 839.69 380.88 121.99 180.2 80.63 66.07 80.63"/><g class="cls-9"><polygon class="cls-5" points="30.38 123.52 507.01 310.93 468.1 35.07 18.28 23.69 30.38 123.52"/></g><polygon class="cls-6" points="66.07 80.63 66.07 908.88 380.88 839.69 380.88 121.99 180.2 80.63 66.07 80.63"/><polygon class="cls-1" points="148.54 140.37 148.54 781.73 311.18 749.05 311.18 173.05 148.54 140.37"/><circle class="cls-4" cx="376.24" cy="472.16" r="16.21"/><polygon class="cls-7" points="301.73 182.24 301.73 182.24 301.73 750.95 311.18 749.05 311.18 173.05 148.54 140.37 148.54 151.65 301.73 182.24"/></svg>