<?xml version="1.0" encoding="UTF-8"?><svg id="Layer_3" xmlns="http://www.w3.org/2000/svg" xmlns:xlink="http://www.w3.org/1999/xlink" viewBox="0 0 1425.68 1357.31"><defs><style>.cls-1,.cls-2,.cls-3,.cls-4,.cls-5,.cls-6,.cls-7,.cls-8,.cls-9,.cls-10,.cls-11,.cls-12{stroke:#000;}.cls-1,.cls-2,.cls-3,.cls-4,.cls-5,.cls-6,.cls-10,.cls-11,.cls-12{stroke-miterlimit:10;}.cls-1,.cls-2,.cls-3,.cls-4,.cls-5,.cls-7,.cls-8,.cls-9,.cls-10,.cls-11,.cls-12{stroke-width:5px;}.cls-1,.cls-4,.cls-5,.cls-6{stroke-linecap:round;}.cls-13{fill:#e0c7b1;}.cls-14,.cls-12{fill:#fff;}.cls-15,.cls-4,.cls-8{fill:#c0272d;}.cls-16{fill:#b56d66;}.cls-3,.cls-17{fill:#b2967d;}.cls-18{clip-path:url(#clippath-2);}.cls-5,.cls-6,.cls-7,.cls-10{fill:none;}.cls-19{fill:#c9af95;}.cls-20{clip-path:url(#clippath-1);}.cls-21{clip-path:url(#clippath-4);}.cls-6{stroke-width:8px;}.cls-7,.cls-8,.cls-9{stroke-miterlimit:3;}.cls-22,.cls-11{fill:#bca388;}.cls-23{fill:#604e40;}.cls-24{clip-path:url(#clippath);}.cls-25{fill:#775336;}.cls-9{fill:#997f6a;}.cls-26{clip-path:url(#clippath-3);}.cls-27{fill:#8e765e;}</style><clipPath id="clippath"><path class="cls-3" d="m490.28,731.55c-.06.79-.12,1.57-.18,2.36-8.33,107.74-35.08,220.29-86.38,336.6l43.3-20.36,26.28,33.94,101.82-35.64,56,35.64,71.28-32.24,52.61,32.24,69.01-37.34,66.19,47.52,53.17-35.04,50.35,35.04,37.34-35.04,38.53,32.02s-166.94-459.14,1.07-630.54c-58.27-9.05-107.48-53.18-107.48-53.18,5.96,47.46,5.75,116.44-31.68,180.17-3.77,6.42-7.75,12.5-11.88,18.24-18.15,18.7-96.11,94.8-215.53,97.16-60.5,1.19-108.08-17.01-135.27-30.16-22.23-22.53-45.58-48.5-68.91-78.19-33.95-43.22-60.55-85-81.35-122.44,0,0,11.85,63.74,14.43,86.97,3.3,29.84,2.97,74.81,2.97,74.81,3.39-6.51,11.6-15.56,20.24-14.12,4.58.76,11.25,6.92,12,19.07.82,6.35.29,13.72-.85,22.2-1.89,14.1-4.26,24.13-7.07,32.24,9.81-12.96,16.97-19.86,24.32-16.69,6.99,3.01,9.1,20.68,5.67,54.76Z"/></clipPath><clipPath id="clippath-1"><path class="cls-11" d="m964.03,319.7c-6.59,2-14.03-4.45-35.76-7.17,0,0-3.97-.5-8.4-.71-34.01-1.67-75.45,46.21-95.6,35.38-4.73-2.54-6.64-7.44-7.2-8.85-10.26-26.26,39.76-83.42,95.62-90.21,10.14-1.23,43.18-5.24,57.46,15.77"/></clipPath><clipPath id="clippath-2"><path class="cls-12" d="m1121.85,370.19c-35.21-22.2-76.93,0-76.93,0,0,0-12.96-114.82,40.87-115.12,43.7-.24,36.06,115.12,36.06,115.12Z"/></clipPath><clipPath id="clippath-3"><path class="cls-12" d="m1231.71,370.19c-30.45-19.2-66.52,0-66.52,0,0,0-11.21-99.28,35.34-99.53,37.78-.21,31.18,99.53,31.18,99.53Z"/></clipPath><clipPath id="clippath-4"><path class="cls-4" d="m1168.24,469.02c-.74,3.72-11.51,59.69,5.52,67.34,3.35,1.51,8.58,1.5,12.73-.42,7.15-3.31,9.59-11.56,12.88-23.35,1.7-6.09,3.57-14.74,4.09-25.44-5.64-1.48-12.73-3.92-20.36-8.06-6.08-3.3-11.01-6.87-14.85-10.07Z"/></clipPath></defs><path class="cls-9" d="m972.66,1033.17v229.95h113.7s14.42-96.73-73.82-62.79v-167.16h-39.88Z"/><path class="cls-8" d="m972.66,1148.15l-16.55,118.37h166.09s9.51-126.47-95.85-77.11l-13.81-41.26h-39.88Z"/><path class="cls-9" d="m587.43,1034.87v229.95h113.7s14.42-96.73-73.82-62.79v-167.16h-39.88Z"/><path class="cls-8" d="m587.43,1149.85l-16.55,118.37h166.09s9.51-126.47-95.85-77.11l-13.81-41.26h-39.88Z"/><path class="cls-9" d="m854.43,1033.17v229.95h113.7s14.42-96.73-73.82-62.79v-167.16h-39.88Z"/><path class="cls-8" d="m854.43,1148.15l-16.55,118.37h166.09s9.51-126.47-95.85-77.11l-13.81-41.26h-39.88Z"/><path class="cls-9" d="m473.3,1034.87v229.95h113.7s14.42-96.73-73.82-62.79v-167.16h-39.88Z"/><path class="cls-25" d="m1163.79,252.45c-20.26-22.17-48.81-33.4-56.22-36.06-.02-4.29-.67-15.13-6.11-26.86-6.35-13.71-20.68-31.19-52.86-36.63-6.42-1.09-13.19-1.64-20.13-1.64-51.94,0-105.73,30.86-129.54,46.41,19.81-24.63,62.83-67.28,126.12-72.48,4.8-.4,11.38-.94,19.17-.94,30.4,0,56.2,8.52,76.69,25.32,40.15,32.93,43.19,84.39,42.89,102.87Z"/><path d="m1044.21,126.76c29.81,0,55.08,8.33,75.1,24.75,19.32,15.85,32.22,37.71,38.34,64.99,2.61,11.63,3.46,22.08,3.64,29.8-18.84-18.33-42.48-28.36-51.27-31.66-.2-5.3-1.31-15.38-6.3-26.15-6.6-14.25-21.46-32.42-54.71-38.04-6.56-1.11-13.47-1.67-20.54-1.67-36.66,0-73.81,15.16-98.51,27.87-6.66,3.43-12.78,6.85-18.21,10.05,22.48-24.07,60.91-54.69,113.5-59.01,4.76-.39,11.28-.93,18.96-.93m0-5c-7.89,0-14.55.55-19.37.94-81.33,6.68-128.99,73.96-137.04,85.7,0,0,71.62-54.63,140.66-54.63,6.62,0,13.21.5,19.71,1.6,60.22,10.18,56.85,62.79,56.85,62.79,0,0,38.41,12.45,60.98,40.73.57-7.16,4.67-71.72-43.52-111.24-26.67-21.88-56.94-25.89-78.27-25.89h0Z"/><path class="cls-17" d="m490.28,731.55c-.06.79-.12,1.57-.18,2.36-8.33,107.74-35.08,220.29-86.38,336.6l43.3-20.36,26.28,33.94,101.82-35.64,56,35.64,71.28-32.24,52.61,32.24,69.01-37.34,66.19,47.52,53.17-35.04,50.35,35.04,37.34-35.04,38.53,32.02s-166.94-459.14,1.07-630.54c-58.27-9.05-107.48-53.18-107.48-53.18,5.96,47.46,5.75,116.44-31.68,180.17-3.77,6.42-7.75,12.5-11.88,18.24-18.15,18.7-96.11,94.8-215.53,97.16-60.5,1.19-108.08-17.01-135.27-30.16-22.23-22.53-45.58-48.5-68.91-78.19-33.95-43.22-60.55-85-81.35-122.44,0,0,11.85,63.74,14.43,86.97,3.3,29.84,2.97,74.81,2.97,74.81,3.39-6.51,11.6-15.56,20.24-14.12,4.58.76,11.25,6.92,12,19.07.82,6.35.29,13.72-.85,22.2-1.89,14.1-4.26,24.13-7.07,32.24,9.81-12.96,16.97-19.86,24.32-16.69,6.99,3.01,9.1,20.68,5.67,54.76Z"/><g class="cls-24"><path class="cls-27" d="m321.41,392.53c35.87,26.74,91.3,75.16,136.19,151.64,37.49,63.88,61.57,66.42,94,202.93,26.04,109.59-45.62,179.48-67.27,223.61l99.13-34.19,61.25,34.19,68.72-32.58,55.15,36.49,73.82-39.03,56.85,46.67,53.46-41.58,56,46.67,51.34-21.04s123.46-23.93,131.1-13.75c7.64,10.18,108.25,266.01,108.25,266.01,0,0-537.18,138.73-541,138.73s-343.65-63.64-366.56-67.46-118.37-29.27-117.1-48.37,21.64-400.93,21.64-400.93c8.34-149.34,16.69-298.68,25.03-448.02Z"/><path class="cls-27" d="m951.02,335.68s55.98,458.49,58.54,519.87,130.69-236.46,130.69-236.46l-31.84-219.77-157.38-63.64Z"/><path class="cls-19" d="m431.72,469.02s102.5,192.88,118.79,272.26c9.75,47.49,2.44,105.24-9.86,131.42l85.38-49.96,33.09,48.37,71.28-42.43,42.43,41.58,59.4-38.18,50.06,38.18,59.4-37.34,50.06,39.88,4.25-151.04-36.1-312.78-315.18,76.88-212.99-16.86Z"/><path class="cls-13" d="m471.6,540.42l99.28,189.83,49.21-14.42,39.03,30.55,56.85-22.91,45.5,22.21,63.06-30.75,52.48,20.15,47.7-43.85,51.59,13.62s8.17-185.98-22.51-294.37c-12.27-43.34-337.1,26.18-337.1,26.18l-145.1,103.76Z"/><path class="cls-23" d="m392.69,413.75s56.85,129.82,80.61,191.77c13.5,35.2,20.02,72.05,17.29,81.92-4.56,16.51-23.51,95.39-101.29,170.76-82.31,79.76-15.56-387.32-15.56-387.32l18.95-57.13Z"/></g><path class="cls-10" d="m490.28,731.55c-.06.79-.12,1.57-.18,2.36-8.33,107.74-35.08,220.29-86.38,336.6l43.3-20.36,26.28,33.94,101.82-35.64,56,35.64,71.28-32.24,52.61,32.24,69.01-37.34,66.19,47.52,53.17-35.04,50.35,35.04,37.34-35.04,38.53,32.02s-166.94-459.14,1.07-630.54c-58.27-9.05-107.48-53.18-107.48-53.18,5.96,47.46,5.75,116.44-31.68,180.17-3.77,6.42-7.75,12.5-11.88,18.24-18.15,18.7-96.11,94.8-215.53,97.16-60.5,1.19-108.08-17.01-135.27-30.16-22.23-22.53-45.58-48.5-68.91-78.19-33.95-43.22-60.55-85-81.35-122.44,0,0,11.85,63.74,14.43,86.97,3.3,29.84,2.97,74.81,2.97,74.81,3.39-6.51,11.6-15.56,20.24-14.12,4.58.76,11.25,6.92,12,19.07.82,6.35.29,13.72-.85,22.2-1.89,14.1-4.26,24.13-7.07,32.24,9.81-12.96,16.97-19.86,24.32-16.69,6.99,3.01,9.1,20.68,5.67,54.76Z"/><path class="cls-22" d="m1219.74,537.92c-5.33,0-10.5-.49-15.37-1.46-11.53-2.29-17.2-6.42-29.63-15.46-6.63-4.83-14.89-10.83-26.78-18.55l.03.05c-1.02-.87-2.98-2.24-6.73-4.86-3.86-2.7-9.9-6.81-16.73-11.08-17.69-11.04-31.63-17.57-41.43-19.38-48.32-8.96-78.87-21.55-105.46-43.48-18.04-14.88-31.99-37.27-39.29-63.07-7.67-27.14-7.01-55.74,1.87-80.53,1.99-5.55,20.92-54.84,72.38-74.88,13.82-5.38,28.52-8.11,43.69-8.11,4.16,0,8.34.21,12.42.63,37.72,3.86,62.91,24.94,75.02,35.07,20.82,17.42,30.87,33.85,51.63,69.35,15.61,26.71,20.8,40.57,25.37,52.8,4.6,12.3,8.58,22.93,21.8,42.79,6.03,9.06,11.64,16.52,16.6,23.1,12.79,17,21.24,28.23,23.73,48.37.99,7.99,3.31,26.72-7.25,42.87-10.57,16.18-31.45,25.83-55.87,25.83h0Z"/><path d="m1056.29,199.61c4.07,0,8.17.21,12.17.62,36.95,3.78,60.84,23.76,73.67,34.5,20.5,17.15,30.47,33.45,51.08,68.69,15.51,26.52,20.65,40.28,25.19,52.41,4.66,12.45,8.68,23.2,22.06,43.3,6.07,9.11,11.71,16.61,16.68,23.22,12.55,16.68,20.84,27.7,23.25,47.17,1.04,8.38,3.19,25.81-6.86,41.2-5.3,8.11-13.16,14.43-23.35,18.77-9.13,3.88-19.65,5.93-30.42,5.93-5.16,0-10.17-.48-14.88-1.41-11-2.19-16.53-6.21-28.64-15.03-6.63-4.83-14.88-10.83-26.75-18.54-3.06-2.27-42.61-31.4-65.91-35.72-47.86-8.87-78.09-21.31-104.32-42.95-17.65-14.55-31.31-36.51-38.47-61.82-7.53-26.65-6.89-54.71,1.81-79.01,1.95-5.44,20.5-53.75,70.93-73.39,13.53-5.27,27.92-7.94,42.78-7.94m0-5c-11.82,0-27.61,1.66-44.6,8.28-52.93,20.61-72.12,71.61-73.82,76.37-19.31,53.93,1.47,116.1,38.18,146.37,26.74,22.05,58.04,35,106.59,44.01,22.89,4.24,63.96,34.91,63.96,34.91,34.33,22.28,38.85,30.7,57.28,34.37,4.97.99,10.33,1.51,15.86,1.51,21.52,0,45.51-7.9,57.96-26.97,10.84-16.58,8.79-35.25,7.64-44.55-3.58-28.92-19.4-40.51-40.73-72.55-26.08-39.16-15.59-41.58-47.09-95.46-20.1-34.37-30.59-51.94-52.18-70-13.76-11.51-38.66-31.78-76.37-35.64-3.37-.35-7.67-.64-12.68-.64h0Z"/><path class="cls-22" d="m964.03,319.7c-6.59,2-14.03-4.45-35.76-7.17,0,0-3.97-.5-8.4-.71-34.01-1.67-75.45,46.21-95.6,35.38-4.73-2.54-6.64-7.44-7.2-8.85-10.26-26.26,39.76-83.42,95.62-90.21,10.14-1.23,43.18-5.24,57.46,15.77"/><g class="cls-20"><path class="cls-16" d="m808.19,369.62c7.74-43.92,36.75-78.34,71.84-85.42,67.02-13.51,125.56,78.92,112.01,104.09,0,0-5.96,11.06-157.83-4.53h0c-8.67-4.71-17.35-9.43-26.02-14.14Z"/></g><path class="cls-10" d="m964.03,319.7c-6.59,2-14.03-4.45-35.76-7.17,0,0-3.97-.5-8.4-.71-34.01-1.67-75.45,46.21-95.6,35.38-4.73-2.54-6.64-7.44-7.2-8.85-10.26-26.26,39.76-83.42,95.62-90.21,10.14-1.23,43.18-5.24,57.46,15.77"/><path d="m1212.9,504c-32.4,0-58-15.69-64.98-20.42,10.02-16.19,7.76-31.56,4.06-41.65,43.69,36.41,78.23,44.37,100.07,44.37,8.74,0,16.06-1.21,21.9-2.8-18.92,13.61-39.4,20.5-61.05,20.5Z"/><path d="m1156.66,448.93c41.31,32.55,74.2,39.87,95.4,39.87,3.5,0,6.79-.19,9.85-.52-15.46,8.79-31.86,13.22-49,13.22-29.2,0-52.8-13.07-61.62-18.7,7.21-12.87,7.17-25.01,5.37-33.86m-12.82-17.4s19.44,25.19.68,52.7c0,0,29.08,22.27,68.39,22.27,23.14,0,49.82-7.71,76.2-32.21,0,0-13.04,9.51-37.05,9.51s-61.82-10.29-108.22-52.27h0Z"/><path class="cls-14" d="m1121.85,370.19c-35.21-22.2-76.93,0-76.93,0,0,0-12.96-114.82,40.87-115.12,43.7-.24,36.06,115.12,36.06,115.12Z"/><g class="cls-18"><path class="cls-2" d="m1082.96,362.84s-7.01-108.94,17.83-95.88c0,0,32.67,13.58,38.61,34.79,5.94,21.21-8.06,114.55-8.06,114.55l-48.38-55.9"/><polygon class="cls-14" points="1072.77 292.69 1093.14 309.94 1072.77 332.57 1072.77 292.69"/><polygon class="cls-14" points="1192.3 304.43 1212.67 321.69 1192.3 344.32 1192.3 304.43"/></g><path class="cls-10" d="m1121.85,370.19c-35.21-22.2-76.93,0-76.93,0,0,0-12.96-114.82,40.87-115.12,43.7-.24,36.06,115.12,36.06,115.12Z"/><path class="cls-14" d="m1231.71,370.19c-30.45-19.2-66.52,0-66.52,0,0,0-11.21-99.28,35.34-99.53,37.78-.21,31.18,99.53,31.18,99.53Z"/><g class="cls-26"><path class="cls-2" d="m1198.08,372.59s-5.78-105.85,19.53-92.59,46.95,73.08,46.95,73.08l-35.21,51.34-31.26-31.82Z"/><polygon class="cls-14" points="1186.91 300.89 1186.91 332.71 1206.85 315.88 1186.91 300.89"/></g><path class="cls-10" d="m1231.71,370.19c-30.45-19.2-66.52,0-66.52,0,0,0-11.21-99.28,35.34-99.53,37.78-.21,31.18,99.53,31.18,99.53Z"/><path class="cls-6" d="m1049.78,254.74s28.88-27.94,65.18-3.33"/><path class="cls-6" d="m1168.5,268.79s25.87-26.47,60.14-3.05"/><path class="cls-1" d="m1266.39,460.7c-7.35-.3-12.16-7.42-14.99-11.6-2.78-4.1-7.75-11.45-5.09-17.82,3.52-8.45,17.71-8.61,21.5-8.66,3.79-.04,17.21-.2,20.64,7.53,2.41,5.42-1.42,11.74-4.24,16.4-2.62,4.32-8.79,14.52-17.82,14.14Z"/><path class="cls-15" d="m1168.24,469.02c-.74,3.72-11.51,59.69,5.52,67.34,3.35,1.51,8.58,1.5,12.73-.42,7.15-3.31,9.59-11.56,12.88-23.35,1.7-6.09,3.57-14.74,4.09-25.44-5.64-1.48-12.73-3.92-20.36-8.06-6.08-3.3-11.01-6.87-14.85-10.07Z"/><g class="cls-21"><polyline class="cls-4" points="1183.83 457.87 1184.57 485.28 1191.47 458.3 1183.83 457.87"/></g><path class="cls-5" d="m1168.24,469.02c-.74,3.72-11.51,59.69,5.52,67.34,3.35,1.51,8.58,1.5,12.73-.42,7.15-3.31,9.59-11.56,12.88-23.35,1.7-6.09,3.57-14.74,4.09-25.44-5.64-1.48-12.73-3.92-20.36-8.06-6.08-3.3-11.01-6.87-14.85-10.07Z"/><path class="cls-25" d="m1011.65,233.99c-13.92-47.48-44.04-80.64-79.14-86.88-4.08-.73-8.32-1.09-12.59-1.09-25.33,0-48.97,12.59-67.97,22.71l-.25.13c-15.42,8.21-29.74,18.39-42.72,30.33,9.91-21.21,34.73-62.28,83.73-78.93,5.46-1.86,22.09-7.51,44.08-7.51,15.21,0,30.07,2.71,44.17,8.04,33.55,12.7,52.25,38.26,65.9,56.92l.51.7c10.07,13.77,18.45,28.8,24.94,44.74-5.11-.88-10.29-1.33-15.48-1.33-5.77,0-11.55.56-17.2,1.66-9.88,1.92-19.28,5.45-27.99,10.5Z"/><path d="m936.79,115.26c14.9,0,29.47,2.65,43.29,7.88,32.86,12.44,51.3,37.65,64.77,56.06l.51.7c9.09,12.43,16.79,25.9,22.94,40.14-3.8-.47-7.63-.71-11.46-.71-5.93,0-11.87.57-17.68,1.7-9.13,1.78-17.85,4.88-26.02,9.26-14.57-46.8-44.9-79.37-80.2-85.64-4.22-.75-8.61-1.13-13.03-1.13-25.96,0-49.9,12.75-69.14,23l-.26.14c-11.84,6.31-23.05,13.76-33.5,22.27,3.04-5.41,6.77-11.35,11.27-17.43,17.51-23.67,39.46-40.11,65.22-48.87,5.37-1.82,21.7-7.37,43.28-7.37m0-5c-21.71,0-38.27,5.39-44.89,7.64-63.6,21.61-86.78,82.84-89.94,91.64,10.47-10.83,27.22-25.84,50.91-38.47,18.74-9.98,42.22-22.55,67.04-22.55,4.02,0,8.08.33,12.16,1.05,36.19,6.43,65.48,42.38,78.06,88.25,6.16-3.87,16.35-9.23,29.98-11.88,6.02-1.17,11.65-1.61,16.72-1.61,8.16,0,14.88,1.13,19.48,2.18-4.86-12.72-13.07-30.63-26.93-49.57-14.01-19.15-32.87-45.36-67.54-58.48-16.23-6.14-31.63-8.21-45.06-8.21h0Z"/><path class="cls-10" d="m882.24,154.1c-10.22-8.72-4.05-24.99,9.1-31.68"/><path class="cls-7" d="m906.14,146.22c-5.75-11.45-3.24-26.33,13.59-30.73"/><path class="cls-7" d="m938.55,146.22c-5.75-11.45-3.24-26.33,13.59-30.73"/><path class="cls-7" d="m963.96,158.43c-4.88-14.9,1.8-31.72,24.81-32.58"/><path class="cls-7" d="m981.52,174.88c-2.26-17.73,15.24-36.88,39.36-26.72"/><path class="cls-7" d="m997.93,195.96c0-19.23,21.7-35.4,44.13-21.92"/><path class="cls-7" d="m1103.21,189.46c6.69-15.98,30.31-22.71,44.24-4.59"/><path class="cls-7" d="m1090.48,170.04c5.14-14.72,25.72-23.83,38.94-10.13"/><path class="cls-7" d="m1067.36,159.06c.32-15.28,16.95-29.63,33.64-20.48"/><path class="cls-7" d="m1044.28,152.81c-3.61-12.74,6.64-26.36,19.13-25.74"/><path class="cls-7" d="m1021.44,149.56c-7.61-7.66-2.48-19.99,9.47-23.23"/><path class="cls-7" d="m1008.54,221.29c2.26-22.63,30.23-37.11,55.61-16.56"/><path class="cls-7" d="m1108.34,202.7c21.3-8.09,40.66-.03,52.7,23.53"/><path class="cls-10" d="m856.99,166.45c-10.22-8.72-4.05-24.99,9.1-31.68"/><path class="cls-8" d="m473.3,1149.85l-16.55,118.37h166.09s9.51-126.47-95.85-77.11l-13.81-41.26h-39.88Z"/><ellipse class="cls-14" cx="587.88" cy="1209.03" rx="7.56" ry="18.24" transform="translate(-710 858.49) rotate(-48.95)"/><ellipse class="cls-14" cx="702.01" cy="1207.33" rx="7.56" ry="18.24" transform="translate(-669.53 943.98) rotate(-48.95)"/><ellipse class="cls-14" cx="972.66" cy="1209.03" rx="7.56" ry="18.24" transform="translate(-577.88 1148.69) rotate(-48.95)"/><ellipse class="cls-14" cx="1087.24" cy="1207.33" rx="7.56" ry="18.24" transform="translate(-537.26 1234.52) rotate(-48.95)"/></svg>