<?xml version="1.0" encoding="UTF-8"?><svg id="Layer_3" xmlns="http://www.w3.org/2000/svg" xmlns:xlink="http://www.w3.org/1999/xlink" viewBox="0 0 892.98 1160.46"><defs><style>.cls-1,.cls-2,.cls-3,.cls-4,.cls-5,.cls-6,.cls-7,.cls-8,.cls-9,.cls-10,.cls-11,.cls-12,.cls-13{stroke:#000;}.cls-1,.cls-2,.cls-3,.cls-4,.cls-5,.cls-6,.cls-9,.cls-11,.cls-12,.cls-13{stroke-miterlimit:10;}.cls-1,.cls-2,.cls-3,.cls-4,.cls-5,.cls-7,.cls-8,.cls-9,.cls-10,.cls-11,.cls-12,.cls-13{stroke-width:5px;}.cls-1,.cls-4,.cls-5,.cls-6{stroke-linecap:round;}.cls-14{fill:#e0c7b1;}.cls-15,.cls-13{fill:#fff;}.cls-16,.cls-4,.cls-8{fill:#c0272d;}.cls-17{fill:#b56d66;}.cls-3,.cls-18{fill:#b2967d;}.cls-19{clip-path:url(#clippath-2);}.cls-5,.cls-6,.cls-7,.cls-11{fill:none;}.cls-20{fill:#c9af95;}.cls-21{clip-path:url(#clippath-1);}.cls-22{clip-path:url(#clippath-4);}.cls-6{stroke-width:8px;}.cls-7,.cls-8,.cls-10{stroke-miterlimit:3;}.cls-23,.cls-12{fill:#bca388;}.cls-24{fill:#604e40;}.cls-9{fill:#775336;}.cls-25{clip-path:url(#clippath);}.cls-10{fill:#997f6a;}.cls-26{clip-path:url(#clippath-3);}.cls-27{fill:#8e765e;}</style><clipPath id="clippath"><path class="cls-3" d="m91.54,621.3c-.06.79-.12,1.57-.18,2.36-8.33,107.74-35.08,220.29-86.38,336.6l43.3-20.36,26.28,33.94,101.82-35.64,56,35.64,71.28-32.24,52.61,32.24,69.01-37.34,66.19,47.52,53.17-35.04,50.35,35.04,37.34-35.04,38.53,32.02s-166.94-459.14,1.07-630.54c-58.27-9.05-107.48-53.18-107.48-53.18,5.96,47.46,5.75,116.44-31.68,180.17-3.77,6.42-7.75,12.5-11.88,18.24-18.15,18.7-96.11,94.8-215.53,97.16-60.5,1.19-108.08-17.01-135.27-30.16-22.23-22.53-45.58-48.5-68.91-78.19-33.95-43.22-60.55-85-81.35-122.44,0,0,11.85,63.74,14.43,86.97,3.3,29.84,2.97,74.81,2.97,74.81,3.39-6.51,11.6-15.56,20.24-14.12,4.58.76,11.25,6.92,12,19.07.82,6.35.29,13.72-.85,22.2-1.89,14.1-4.26,24.13-7.07,32.24,9.81-12.96,16.97-19.86,24.32-16.69,6.99,3.01,9.1,20.68,5.67,54.76Z"/></clipPath><clipPath id="clippath-1"><path class="cls-12" d="m565.3,209.45c-6.59,2-14.03-4.45-35.76-7.17,0,0-3.97-.5-8.4-.71-34.01-1.67-75.45,46.21-95.6,35.38-4.73-2.54-6.64-7.44-7.2-8.85-10.26-26.26,39.76-83.42,95.62-90.21,10.14-1.23,43.18-5.24,57.46,15.77"/></clipPath><clipPath id="clippath-2"><path class="cls-13" d="m723.11,259.93c-35.21-22.2-76.93,0-76.93,0,0,0-12.96-114.82,40.87-115.12,43.7-.24,36.06,115.12,36.06,115.12Z"/></clipPath><clipPath id="clippath-3"><path class="cls-13" d="m832.97,259.93c-30.45-19.2-66.52,0-66.52,0,0,0-11.21-99.28,35.34-99.53,37.78-.21,31.18,99.53,31.18,99.53Z"/></clipPath><clipPath id="clippath-4"><path class="cls-4" d="m769.51,358.76c-.74,3.72-11.51,59.69,5.52,67.34,3.35,1.51,8.58,1.5,12.73-.42,7.15-3.31,9.59-11.56,12.88-23.35,1.7-6.09,3.57-14.74,4.09-25.44-5.64-1.48-12.73-3.92-20.36-8.06-6.08-3.3-11.01-6.87-14.85-10.07Z"/></clipPath></defs><path class="cls-13" d="m431.28,226.2h0Zm129.9-29.16h0,0Z"/><path class="cls-10" d="m573.92,922.92v229.95h113.7s14.42-96.73-73.82-62.79v-167.16h-39.88Z"/><path class="cls-8" d="m573.92,1037.89l-16.55,118.37h166.09s9.51-126.47-95.85-77.11l-13.81-41.26h-39.88Z"/><path class="cls-10" d="m188.69,924.61v229.95h113.7s14.42-96.73-73.82-62.79v-167.16h-39.88Z"/><path class="cls-8" d="m188.69,1039.59l-16.55,118.37h166.09s9.51-126.47-95.85-77.11l-13.81-41.26h-39.88Z"/><path class="cls-10" d="m455.69,922.92v229.95h113.7s14.42-96.73-73.82-62.79v-167.16h-39.88Z"/><path class="cls-8" d="m455.69,1037.89l-16.55,118.37h166.09s9.51-126.47-95.85-77.11l-13.81-41.26h-39.88Z"/><path class="cls-10" d="m74.56,924.61v229.95h113.7s14.42-96.73-73.82-62.79v-167.16h-39.88Z"/><path class="cls-9" d="m645.48,14c30.4,0,56.2,8.52,76.69,25.32,40.15,32.93,43.19,84.39,42.89,102.87-20.26-22.17-48.81-33.4-56.22-36.06-.02-4.29-.67-15.13-6.11-26.86-6.35-13.71-20.68-31.19-52.86-36.63-6.42-1.09-13.19-1.64-20.13-1.64-51.94,0-105.73,30.86-129.54,46.41,19.81-24.63,62.83-67.28,126.12-72.48l19.17-.94Z"/><path class="cls-18" d="m91.54,621.3c-.06.79-.12,1.57-.18,2.36-8.33,107.74-35.08,220.29-86.38,336.6l43.3-20.36,26.28,33.94,101.82-35.64,56,35.64,71.28-32.24,52.61,32.24,69.01-37.34,66.19,47.52,53.17-35.04,50.35,35.04,37.34-35.04,38.53,32.02s-166.94-459.14,1.07-630.54c-58.27-9.05-107.48-53.18-107.48-53.18,5.96,47.46,5.75,116.44-31.68,180.17-3.77,6.42-7.75,12.5-11.88,18.24-18.15,18.7-96.11,94.8-215.53,97.16-60.5,1.19-108.08-17.01-135.27-30.16-22.23-22.53-45.58-48.5-68.91-78.19-33.95-43.22-60.55-85-81.35-122.44,0,0,11.85,63.74,14.43,86.97,3.3,29.84,2.97,74.81,2.97,74.81,3.39-6.51,11.6-15.56,20.24-14.12,4.58.76,11.25,6.92,12,19.07.82,6.35.29,13.72-.85,22.2-1.89,14.1-4.26,24.13-7.07,32.24,9.81-12.96,16.97-19.86,24.32-16.69,6.99,3.01,9.1,20.68,5.67,54.76Z"/><g class="cls-25"><path class="cls-27" d="m11.84,358.76c35.87,26.74,2.14-1.32,47.02,75.16,37.49,63.88,61.57,66.42,94,202.93,26.04,109.59-45.62,179.48-67.27,223.61l99.13-34.19,61.25,34.19,68.72-32.58,55.15,36.49,73.82-39.03,56.85,46.67,53.46-41.58,56,46.67,34.83-14.27s33.63,103.46,41.27,113.64c7.64,10.18-63.93,23.14-63.93,23.14,0,0-37.63,27.65-109.14,0,0,0-65.95-11.78-88.86-15.6S3.71,979.34,4.98,960.25c1.27-19.09,70.52-221.37,70.52-221.37,8.34-149.34,16.35-161.69-63.66-380.12Z"/><path class="cls-27" d="m552.28,225.43s55.98,458.49,58.54,519.87c2.56,61.37-1.01-245.89-1.01-245.89l65.55-163.18-123.07-110.8Z"/><path class="cls-20" d="m32.99,358.76s102.5,192.88,118.79,272.26c9.75,47.49,2.44,105.24-9.86,131.42l85.38-49.96,33.09,48.37,71.28-42.43,42.43,41.58,59.4-38.18,50.06,38.18,59.4-37.34,50.06,39.88,4.25-151.04-36.1-312.78-48.35,288-342.72-24.05L32.99,358.76Z"/><path class="cls-14" d="m72.87,430.16l99.28,189.83,49.21-14.42,39.03,30.55,56.85-22.91,45.5,22.21,63.06-30.75,52.48,20.15,47.7-43.85,51.59,13.62s-6.69-405.89-22.51-294.37c-5.99,42.23-21.01,179.74-76.67,232.22-66.61,62.79-304.7,11.88-304.7,11.88l-100.82-114.15Z"/><path class="cls-24" d="m12.03,345.13s38.78,88.19,62.54,150.13c13.5,35.2,20.02,72.05,17.29,81.92-4.56,16.51-26.59,14.89-35.28,5.61-4.22-4.51-32.52-104.83-32.52-104.83l-12.02-132.84Z"/></g><path class="cls-11" d="m91.54,621.3c-.06.79-.12,1.57-.18,2.36-8.33,107.74-35.08,220.29-86.38,336.6l43.3-20.36,26.28,33.94,101.82-35.64,56,35.64,71.28-32.24,52.61,32.24,69.01-37.34,66.19,47.52,53.17-35.04,50.35,35.04,37.34-35.04,38.53,32.02s-166.94-459.14,1.07-630.54c-58.27-9.05-107.48-53.18-107.48-53.18,5.96,47.46,5.75,116.44-31.68,180.17-3.77,6.42-7.75,12.5-11.88,18.24-18.15,18.7-96.11,94.8-215.53,97.16-60.5,1.19-108.08-17.01-135.27-30.16-22.23-22.53-45.58-48.5-68.91-78.19-33.95-43.22-60.55-85-81.35-122.44,0,0,11.85,63.74,14.43,86.97,3.3,29.84,2.97,74.81,2.97,74.81,3.39-6.51,11.6-15.56,20.24-14.12,4.58.76,11.25,6.92,12,19.07.82,6.35.29,13.72-.85,22.2-1.89,14.1-4.26,24.13-7.07,32.24,9.81-12.96,16.97-19.86,24.32-16.69,6.99,3.01,9.1,20.68,5.67,54.76Z"/><path class="cls-12" d="m821.01,427.66c-5.33,0-10.5-.49-15.37-1.46-11.53-2.29-17.2-6.42-29.63-15.46-6.63-4.83-14.89-10.83-26.78-18.55l.03.05c-1.02-.87-2.98-2.24-6.73-4.86-3.86-2.7-9.9-6.81-16.73-11.08-17.69-11.04-31.63-17.57-41.43-19.38-48.32-8.96-78.87-21.55-105.46-43.48-18.04-14.88-31.99-37.27-39.29-63.07-7.67-27.14-7.01-55.74,1.87-80.53,1.99-5.55,20.92-54.84,72.38-74.88,13.82-5.38,28.52-8.11,43.69-8.11,4.16,0,8.34.21,12.42.63,37.72,3.86,62.91,24.94,75.02,35.07,20.82,17.42,30.87,33.85,51.63,69.35,15.61,26.71,20.8,40.57,25.37,52.8,4.6,12.3,8.58,22.93,21.8,42.79,6.03,9.06,11.64,16.52,16.6,23.1,12.79,17,21.24,28.23,23.73,48.37.99,7.99,3.31,26.72-7.25,42.87-10.57,16.18-31.45,25.83-55.87,25.83h0Z"/><path class="cls-23" d="m565.3,209.45c-6.59,2-14.03-4.45-35.76-7.17,0,0-3.97-.5-8.4-.71-34.01-1.67-75.45,46.21-95.6,35.38-4.73-2.54-6.64-7.44-7.2-8.85-10.26-26.26,39.76-83.42,95.62-90.21,10.14-1.23,43.18-5.24,57.46,15.77"/><g class="cls-21"><path class="cls-17" d="m558.89,296.84c-28.53,0-11.91-72.19-66.29-77.77-1.97-.2-12.86,14.13-51.91,17.95l-23.99,15.34c-5.67-3.08-17.58,9.8-16.46,3.45,8.82-50.02,36.87-88.26,78.08-96.57,5.39-1.09,10.91-1.64,16.4-1.64,44.83,0,82.21,35.97,100.6,66.77,6.94,11.62,21.93,40.82,11.17,60.77-4.19,7.76-12.7,11.69-47.61,11.69Z"/><path class="cls-12" d="m433.01,224h0Zm129.9-29.16h0Z"/></g><path class="cls-11" d="m565.3,209.45c-6.59,2-14.03-4.45-35.76-7.17,0,0-3.97-.5-8.4-.71-34.01-1.67-75.45,46.21-95.6,35.38-4.73-2.54-6.64-7.44-7.2-8.85-10.26-26.26,39.76-83.42,95.62-90.21,10.14-1.23,43.18-5.24,57.46,15.77"/><path d="m814.17,393.74c-32.4,0-58-15.69-64.98-20.42,10.02-16.19,7.76-31.56,4.06-41.65,43.69,36.41,78.23,44.37,100.07,44.37,8.74,0,16.06-1.21,21.9-2.8-18.92,13.61-39.4,20.5-61.05,20.5Z"/><path d="m757.92,338.68c41.31,32.55,74.2,39.87,95.4,39.87,3.5,0,6.79-.19,9.85-.52-15.46,8.79-31.86,13.22-49,13.22-29.2,0-52.8-13.07-61.62-18.7,7.21-12.87,7.17-25.01,5.37-33.86m-12.82-17.4s19.44,25.19.68,52.7c0,0,29.08,22.27,68.39,22.27,23.14,0,49.82-7.71,76.2-32.21,0,0-13.04,9.51-37.05,9.51s-61.82-10.29-108.22-52.27h0Z"/><path class="cls-15" d="m723.11,259.93c-35.21-22.2-76.93,0-76.93,0,0,0-12.96-114.82,40.87-115.12,43.7-.24,36.06,115.12,36.06,115.12Z"/><g class="cls-19"><path class="cls-2" d="m684.22,252.58s-7.01-108.94,17.83-95.88c0,0,32.67,13.58,38.61,34.79,5.94,21.21-8.06,114.55-8.06,114.55l-48.38-55.9"/><polygon class="cls-15" points="674.04 182.44 694.4 199.69 674.04 222.32 674.04 182.44"/><polygon class="cls-15" points="793.56 194.18 813.93 211.43 793.56 234.06 793.56 194.18"/></g><path class="cls-11" d="m723.11,259.93c-35.21-22.2-76.93,0-76.93,0,0,0-12.96-114.82,40.87-115.12,43.7-.24,36.06,115.12,36.06,115.12Z"/><path class="cls-15" d="m832.97,259.93c-30.45-19.2-66.52,0-66.52,0,0,0-11.21-99.28,35.34-99.53,37.78-.21,31.18,99.53,31.18,99.53Z"/><g class="cls-26"><path class="cls-2" d="m799.34,262.34s-5.78-105.85,19.53-92.59c25.31,13.26,17.18,69.7,17.18,69.7l-5.45,54.72-31.26-31.82Z"/><polygon class="cls-15" points="788.18 190.64 788.18 222.46 808.12 205.62 788.18 190.64"/></g><path class="cls-11" d="m832.97,259.93c-30.45-19.2-66.52,0-66.52,0,0,0-11.21-99.28,35.34-99.53,37.78-.21,31.18,99.53,31.18,99.53Z"/><path class="cls-6" d="m651.04,144.49s28.88-27.94,65.18-3.33"/><path class="cls-6" d="m769.77,158.53s25.87-26.47,60.14-3.05"/><path class="cls-1" d="m867.65,350.44c-7.35-.3-12.16-7.42-14.99-11.6-2.78-4.1-7.75-11.45-5.09-17.82,3.52-8.45,17.71-8.61,21.5-8.66,3.79-.04,17.21-.2,20.64,7.53,2.41,5.42-1.42,11.74-4.24,16.4-2.62,4.32-8.79,14.52-17.82,14.14Z"/><path class="cls-16" d="m769.51,358.76c-.74,3.72-11.51,59.69,5.52,67.34,3.35,1.51,8.58,1.5,12.73-.42,7.15-3.31,9.59-11.56,12.88-23.35,1.7-6.09,3.57-14.74,4.09-25.44-5.64-1.48-12.73-3.92-20.36-8.06-6.08-3.3-11.01-6.87-14.85-10.07Z"/><g class="cls-22"><polyline class="cls-4" points="785.09 347.62 785.83 375.03 792.73 348.04 785.09 347.62"/></g><path class="cls-5" d="m769.51,358.76c-.74,3.72-11.51,59.69,5.52,67.34,3.35,1.51,8.58,1.5,12.73-.42,7.15-3.31,9.59-11.56,12.88-23.35,1.7-6.09,3.57-14.74,4.09-25.44-5.64-1.48-12.73-3.92-20.36-8.06-6.08-3.3-11.01-6.87-14.85-10.07Z"/><path class="cls-9" d="m612.91,123.73c-13.92-47.48-44.04-80.64-79.14-86.88-4.08-.73-8.32-1.09-12.59-1.09-25.33,0-48.97,12.59-67.97,22.71l-.25.13c-15.42,8.21-29.74,18.39-42.72,30.33,9.91-21.21,34.73-62.28,83.73-78.93,5.46-1.86,22.09-7.51,44.08-7.51,15.21,0,30.07,2.71,44.17,8.04,33.55,12.7,52.25,38.26,65.9,56.92l.51.7c10.07,13.77,18.45,28.8,24.94,44.74-5.11-.88-10.29-1.33-15.48-1.33-5.77,0-11.55.56-17.2,1.66-9.88,1.92-19.28,5.45-27.99,10.5Z"/><path class="cls-11" d="m483.5,43.84c-10.22-8.72-4.05-24.99,9.1-31.68"/><path class="cls-7" d="m507.41,35.96c-5.75-11.45-3.24-26.33,13.59-30.73"/><path class="cls-7" d="m539.82,35.96c-5.75-11.45-3.24-26.33,13.59-30.73"/><path class="cls-7" d="m565.22,48.18c-4.88-14.9,1.8-31.72,24.81-32.58"/><path class="cls-7" d="m582.79,64.62c-2.26-17.73,15.24-36.88,39.36-26.72"/><path class="cls-7" d="m599.19,85.7c0-19.23,21.7-35.4,44.13-21.92"/><path class="cls-7" d="m704.47,79.21c6.69-15.98,30.31-22.71,44.24-4.59"/><path class="cls-7" d="m691.74,59.78c5.14-14.72,25.72-23.83,38.94-10.13"/><path class="cls-7" d="m668.62,48.8c.32-15.28,16.95-29.63,33.64-20.48"/><path class="cls-7" d="m645.54,42.56c-3.61-12.74,6.64-26.36,19.13-25.74"/><path class="cls-7" d="m622.7,39.3c-7.61-7.66-2.48-19.99,9.47-23.23"/><path class="cls-7" d="m609.81,111.04c2.26-22.63,30.23-37.11,55.61-16.56"/><path class="cls-7" d="m724.21,89.42c15.76-2.63,26.05,3,38.09,26.55"/><path class="cls-11" d="m458.26,56.19c-10.22-8.72-4.05-24.99,9.1-31.68"/><path class="cls-8" d="m74.56,1039.59l-16.55,118.37h166.09s9.51-126.47-95.85-77.11l-13.81-41.26h-39.88Z"/><ellipse class="cls-15" cx="189.14" cy="1098.77" rx="7.56" ry="18.24" transform="translate(-763.75 519.91) rotate(-48.95)"/><ellipse class="cls-15" cx="303.27" cy="1097.08" rx="7.56" ry="18.24" transform="translate(-723.28 605.4) rotate(-48.95)"/><ellipse class="cls-15" cx="573.92" cy="1098.77" rx="7.56" ry="18.24" transform="translate(-631.63 810.11) rotate(-48.95)"/><ellipse class="cls-15" cx="688.5" cy="1097.08" rx="7.56" ry="18.24" transform="translate(-591.01 895.94) rotate(-48.95)"/></svg>